<?xml version="1.0" standalone="no"?><!DOCTYPE svg PUBLIC "-//W3C//DTD SVG 1.1//EN" "http://www.w3.org/Graphics/SVG/1.1/DTD/svg11.dtd"><svg class="icon" width="200px" height="200.00px" viewBox="0 0 1024 1024" version="1.1" xmlns="http://www.w3.org/2000/svg"><path d="M833.9456 64.00512c6.08256 0 11.8784 3.11296 15.8464 8.53504 8.0384 10.9824 13.76768 31.85664 15.26784 48.21504 1.8944 20.63872-1.82272 40.11008-4.25472 59.75552-6.38464 23.78752-5.88288 26.23488-15.77984 47.49824a335.11936 335.11936 0 0 1-13.76256 26.52672c22.4 9.3696 37.8368 15.62624 37.8368 15.62624l59.61728 14.57152s36.72064 9.86112 12.14976 54.47168c-20.31104 36.86912-80.4096 62.45376-100.67968 70.23104l12.4416 90.12736c0.04096-0.57344 0.1024-1.13664 0.13824-1.71008l2.00192 17.24416 11.03872 79.95904c14.00832 101.52448-5.86752 188.02688-61.44 253.89056-0.27136 0.32256-0.54784 0.61952-0.81408 0.94208-2.43712 2.86208-4.8384 5.73952-7.41376 8.5248-0.65024 0.71168-1.36192 1.36192-2.02752 2.06336-0.46592 0.49664-0.88064 1.01888-1.34656 1.5104-1.35168 1.41824-2.79552 2.71872-4.16768 4.11136-2.09408 2.0992-4.18304 4.20864-6.34368 6.24128a246.6304 246.6304 0 0 1-6.08256 5.4784c-2.5344 2.2528-5.08416 4.48512-7.7056 6.64576-1.16736 0.95744-2.3552 1.88416-3.53792 2.816-60.58496 48.35328-142.40256 72.72448-247.56224 72.72448-1.7152 0-3.35872-0.0768-5.06368-0.09216-1.89952 0.01536-3.74272 0.09216-5.65248 0.09216-124.39552 0-216.2688-33.9712-278.784-101.59104-61.89056-66.93888-84.352-156.91776-69.66272-263.35744l11.03872-79.95904 2.00192-17.24416c0.04096 0.57344 0.1024 1.1264 0.14336 1.69984l12.43648-90.112c-20.27008-7.77728-80.36864-33.36192-100.67968-70.23104-24.576-44.61568 12.14976-54.4768 12.14976-54.4768l59.61216-14.57152s16.8448-6.82496 40.90368-16.91136a258.02752 258.02752 0 0 1-10.90048-20.9152c-9.89696-21.26336-9.3952-23.71072-15.78496-47.49824-2.42688-19.64032-6.14912-39.1168-4.25472-59.7504 1.50016-16.3584 7.23456-37.23264 15.27296-48.21504 3.96288-5.41696 9.76384-8.53504 15.84128-8.53504 7.93088 0 16.34816 5.30944 21.79072 17.73056 6.82496 15.5648 8.34048 33.4592 15.74912 48.9984 17.50016 36.70016 41.26208 46.2848 80.9984 62.16192 51.78368-28.8512 115.28192-42.68032 193.91488-42.68032 1.19808 0 2.37568 0.0256 3.56864 0.03584 1.18784-0.00512 2.36544-0.03584 3.57376-0.03584 79.85152 0 144.07168 14.30016 196.29056 44.07296 41.85088-17.02912 66.5344-30.11072 84.54144-67.87584 7.40864-15.53408 8.92928-33.42848 15.74912-48.9984 5.44256-12.43136 13.8496-17.7408 21.7856-17.7408m0-51.2c-29.29152 0-55.60832 18.53952-68.6848 48.384-4.89984 11.1872-7.62368 21.74976-10.02496 31.06816-1.69472 6.55872-3.29216 12.75904-5.03808 16.43008-7.44448 15.60576-14.68416 23.12192-36.33152 33.31072-55.19872-25.98912-120.3712-38.66624-198.29248-38.66624-0.93184 0-1.84832 0.01024-2.7648 0.02048l-0.80896 0.02048-0.8192-0.01024c-0.91136-0.01024-1.82272-0.02048-2.74944-0.02048-76.94848 0-141.39904 12.32384-196.096 37.59616-20.52096-9.00096-26.09664-14.27968-32.59904-27.91424-1.75104-3.67104-3.34848-9.86624-5.03808-16.42496-2.40128-9.32864-5.12512-19.89632-10.03008-31.08864C251.5968 35.67616 225.28 17.13152 195.98336 17.13152c-22.272 0-43.63776 11.02336-57.15968 29.4912-15.32416 20.93056-22.93248 51.84-24.94464 73.78432-2.0736 22.6048 0.65536 42.6752 3.06688 60.3904 0.46592 3.44064 0.93696 6.87616 1.36192 10.3168 0.29184 2.36032 0.74752 4.69504 1.36192 6.99392 1.23392 4.58752 2.19648 8.3456 3.02592 11.59168 1.42848 5.57568 2.62656 10.16832 3.98848 14.65344l-43.55584 10.6496c-0.37376 0.09216-0.74752 0.18432-1.11616 0.28672-18.00704 4.83328-41.19552 19.28704-52.29568 45.35296C22.2976 298.06592 17.7664 326.656 38.29248 363.91936c19.0464 34.57536 56.50944 59.89376 89.54368 76.65664l-6.0928 44.16c-0.61952 2.33984-1.0752 4.74624-1.36192 7.21408l-1.94048 16.70144-10.96192 79.4112c-16.93696 122.71104 11.69408 228.21888 82.7904 305.11616 72.40704 78.32064 178.85184 118.03136 316.37504 118.03136 1.44384 0 2.86208-0.0256 4.2752-0.06144l1.33632-0.0256 1.024 0.0256c1.35168 0.03072 2.69824 0.06144 4.08064 0.06144 115.60448 0 209.5872-28.19072 279.32672-83.76832l0.11776-0.09216c1.3824-1.08544 2.75968-2.176 4.11648-3.28704a322.89792 322.89792 0 0 0 9.18528-7.90528c2.44736-2.15552 4.88448-4.31616 7.25504-6.54848 2.32448-2.18624 4.6336-4.49024 6.93248-6.79424l0.54784-0.54784c0.4352-0.44544 0.73728-0.72704 1.02912-1.00864 1.3568-1.30048 2.69824-2.61632 3.99872-3.98336 0.56832-0.59904 1.11616-1.19808 1.64864-1.80736 0.87552-0.87552 1.63328-1.664 2.37568-2.47296a260.60288 260.60288 0 0 0 7.53152-8.60672l1.07008-1.2544c0.35328-0.40448 0.67584-0.77824 0.9984-1.16224 63.86176-75.68896 89.10848-177.32608 73.02656-293.90336l-10.96704-79.4112-1.93536-16.6912c-0.28672-2.46272-0.74752-4.864-1.36192-7.19872l-6.0928-44.18048c33.02912-16.76288 70.49216-42.07616 89.53856-76.65664 20.52608-37.26336 15.98976-65.85344 8.57088-83.2768-11.09504-26.0608-34.2784-40.51456-52.28544-45.34784a27.88864 27.88864 0 0 0-1.1264-0.28672l-39.35744-9.62048c2.17088-6.34368 3.71712-12.21632 5.71392-20.00384 0.82944-3.24096 1.792-6.99904 3.02592-11.59168 0.6144-2.29376 1.07008-4.62848 1.36704-6.9888 0.42496-3.43552 0.89088-6.86592 1.36192-10.29632 2.41152-17.72032 5.14048-37.80608 3.06688-60.42624-2.01216-21.9392-9.62048-52.84864-24.93952-73.7792-13.52192-18.4832-34.88768-29.50656-57.15456-29.50656z" /></svg>