<?xml version="1.0" standalone="no"?><!DOCTYPE svg PUBLIC "-//W3C//DTD SVG 1.1//EN" "http://www.w3.org/Graphics/SVG/1.1/DTD/svg11.dtd"><svg class="icon" width="200px" height="200.00px" viewBox="0 0 1024 1024" version="1.1" xmlns="http://www.w3.org/2000/svg"><path d="M746.666667 202.666667C672 128 580.266667 89.6 473.6 89.6S277.333333 128 202.666667 202.666667s-113.066667 166.4-113.066667 270.933333S128 672 202.666667 746.666667s166.4 113.066667 270.933333 113.066666c91.733333 0 170.666667-27.733333 238.933333-83.2l6.4 6.4 138.666667 138.666667c8.533333 8.533333 19.2 12.8 29.866667 12.8h2.133333c10.666667 0 21.333333-4.266667 27.733333-12.8 8.533333-8.533333 12.8-19.2 12.8-29.866667s-4.266667-21.333333-12.8-29.866666l-138.666666-138.666667-6.4-6.4c55.466667-68.266667 83.2-149.333333 83.2-238.933333 2.133333-108.8-34.133333-200.533333-108.8-275.2z m-482.133334 61.866666c57.6-57.6 128-87.466667 211.2-87.466666s153.6 29.866667 211.2 87.466666c57.6 57.6 87.466667 128 87.466667 211.2s-29.866667 153.6-87.466667 211.2c-57.6 57.6-128 87.466667-211.2 87.466667s-153.6-29.866667-211.2-87.466667c-57.6-57.6-87.466667-128-87.466666-211.2s27.733333-153.6 87.466666-211.2z" /></svg>