<?xml version="1.0" standalone="no"?><!DOCTYPE svg PUBLIC "-//W3C//DTD SVG 1.1//EN" "http://www.w3.org/Graphics/SVG/1.1/DTD/svg11.dtd"><svg class="icon" width="200px" height="200.00px" viewBox="0 0 1024 1024" version="1.1" xmlns="http://www.w3.org/2000/svg"><path d="M266.666667 480c46.933333 0 87.466667-17.066667 121.6-49.066667 23.466667-23.466667 38.4-49.066667 44.8-78.933333h411.733333c23.466667 0 42.666667-19.2 42.666667-42.666667s-19.2-42.666667-42.666667-42.666666H433.066667c-6.4-29.866667-21.333333-55.466667-44.8-78.933334-34.133333-34.133333-72.533333-49.066667-121.6-49.066666s-87.466667 17.066667-121.6 49.066666-49.066667 72.533333-49.066667 121.6 17.066667 87.466667 49.066667 121.6c34.133333 32 74.666667 49.066667 121.6 49.066667zM206.933333 249.6c17.066667-17.066667 36.266667-25.6 59.733334-25.6s42.666667 8.533333 59.733333 25.6 25.6 36.266667 25.6 59.733333c0 23.466667-8.533333 42.666667-25.6 59.733334-17.066667 17.066667-36.266667 25.6-59.733333 25.6-23.466667 0-42.666667-8.533333-59.733334-25.6-17.066667-17.066667-25.6-36.266667-25.6-59.733334s8.533333-42.666667 25.6-59.733333zM878.933333 593.066667c-34.133333-34.133333-72.533333-49.066667-121.6-49.066667s-87.466667 17.066667-121.6 49.066667c-23.466667 23.466667-38.4 49.066667-44.8 78.933333H183.466667h-2.133334c-23.466667 0-42.666667 19.2-42.666666 42.666667s19.2 42.666667 42.666666 42.666666h411.733334c6.4 29.866667 21.333333 55.466667 44.8 78.933334 34.133333 34.133333 72.533333 49.066667 121.6 49.066666s87.466667-17.066667 121.6-49.066666c34.133333-34.133333 49.066667-72.533333 49.066666-121.6s-19.2-87.466667-51.2-121.6z m-61.866666 181.333333c-17.066667 17.066667-36.266667 25.6-59.733334 25.6s-42.666667-8.533333-59.733333-25.6c-17.066667-17.066667-25.6-36.266667-25.6-59.733333v-2.133334-2.133333c0-23.466667 8.533333-42.666667 25.6-59.733333 17.066667-17.066667 36.266667-25.6 59.733333-25.6s42.666667 8.533333 59.733334 25.6c17.066667 17.066667 25.6 36.266667 25.6 59.733333s-8.533333 46.933333-25.6 64z" /></svg>