<?xml version="1.0" standalone="no"?><!DOCTYPE svg PUBLIC "-//W3C//DTD SVG 1.1//EN" "http://www.w3.org/Graphics/SVG/1.1/DTD/svg11.dtd"><svg class="icon" width="200px" height="200.00px" viewBox="0 0 1024 1024" version="1.1" xmlns="http://www.w3.org/2000/svg"><path d="M812.8 706.133333L512 407.466667 211.2 708.266667c-14.933333 14.933333-38.4 17.066667-53.333333 4.266666-2.133333-2.133333-4.266667-2.133333-6.4-4.266666-14.933333-14.933333-17.066667-38.4-4.266667-53.333334 2.133333-2.133333 2.133333-4.266667 4.266667-6.4l330.666666-330.666666c17.066667-17.066667 42.666667-17.066667 59.733334 0l330.666666 330.666666c8.533333 8.533333 12.8 19.2 12.8 29.866667 0 10.666667-4.266667 21.333333-12.8 29.866667-8.533333 8.533333-19.2 12.8-29.866666 12.8-10.666667-2.133333-21.333333-6.4-29.866667-14.933334z" /></svg>