<?xml version="1.0" standalone="no"?><!DOCTYPE svg PUBLIC "-//W3C//DTD SVG 1.1//EN" "http://www.w3.org/Graphics/SVG/1.1/DTD/svg11.dtd"><svg class="icon" width="256px" height="256.00px" viewBox="0 0 1024 1024" version="1.1" xmlns="http://www.w3.org/2000/svg"><path d="M517.525333 64c91.264 0 169.237333 17.664 235.605334 53.162667a370.048 370.048 0 0 1 153.706666 153.706666C942.336 337.237333 960 415.210667 960 506.453333v11.050667c0 91.264-17.664 169.237333-53.162667 235.605333a370.048 370.048 0 0 1-153.706666 153.706667C686.762667 942.336 608.789333 960 517.546667 960h-11.050667c-91.264 0-169.237333-17.664-235.605333-53.162667a370.048 370.048 0 0 1-153.706667-153.706666C81.664 686.762667 64 608.789333 64 517.546667v-11.050667c0-91.264 17.664-169.237333 53.162667-235.605333a370.048 370.048 0 0 1 153.706666-153.706667C337.237333 81.664 415.210667 64 506.453333 64z m0 85.333333h-11.050666c-77.824 0-142.016 14.549333-195.370667 43.093334a284.714667 284.714667 0 0 0-118.698667 118.677333C163.882667 364.458667 149.333333 428.650667 149.333333 506.474667v11.050666c0 77.824 14.549333 142.016 43.093334 195.370667a284.714667 284.714667 0 0 0 118.677333 118.698667C364.458667 860.117333 428.650667 874.666667 506.474667 874.666667h11.050666c77.824 0 142.016-14.549333 195.370667-43.093334a284.714667 284.714667 0 0 0 118.698667-118.677333C860.117333 659.541333 874.666667 595.349333 874.666667 517.525333v-11.050666c0-77.824-14.549333-142.016-43.093334-195.370667a284.714667 284.714667 0 0 0-118.677333-118.698667C659.541333 163.882667 595.349333 149.333333 517.525333 149.333333z m22.314667 202.325334l2.346667 2.176 90.496 90.496a42.666667 42.666667 0 0 1-58.026667 62.506666l-2.325333-2.154666-17.664-17.685334V640l-0.106667 3.2A42.666667 42.666667 0 0 1 469.333333 640v-153.002667l-17.664 17.685334a42.666667 42.666667 0 0 1-58.026666 2.176l-2.325334-2.176a42.666667 42.666667 0 0 1-2.176-58.026667l2.176-2.325333 90.517334-90.496a42.666667 42.666667 0 0 1 58.005333-2.176z" fill="#8a8a8a" /></svg>