<?xml version="1.0" standalone="no"?><!DOCTYPE svg PUBLIC "-//W3C//DTD SVG 1.1//EN" "http://www.w3.org/Graphics/SVG/1.1/DTD/svg11.dtd"><svg class="icon" width="256px" height="256.00px" viewBox="0 0 1024 1024" version="1.1" xmlns="http://www.w3.org/2000/svg"><path d="M519.530667 128c100.586667 0 185.472 19.2 257.941333 57.941333a402.581333 402.581333 0 0 1 167.253333 167.253334c24.32 45.525333 40.96 95.957333 49.962667 152.064a42.666667 42.666667 0 0 1 0 13.504c-9.002667 56.106667-25.621333 106.538667-49.962667 152.042666-34.389333 64.277333-83.306667 116.416-144.64 154.24l13.610667 13.653334a42.666667 42.666667 0 0 1-58.005333 62.506666l-2.346667-2.176L82.325333 227.968a42.666667 42.666667 0 0 1 58.005334-62.506667l2.346666 2.176L194.133333 219.136l9.898667-7.125333a417.706667 417.706667 0 0 1 42.453333-26.069334c69.589333-37.205333 150.613333-56.384 245.973334-57.856L504.469333 128h15.061334zM81.898667 348.416l63.445333 63.466667c-13.525333 29.226667-23.466667 61.098667-29.930667 96.128l-1.28 7.36 0.597334-3.370667 0.682666 3.968c6.464 35.093333 16.448 67.029333 30.016 96.32l4.650667 9.664 4.458667 8.618667a317.269333 317.269333 0 0 0 132.224 132.224c56.853333 30.421333 124.373333 46.442667 206.442666 47.786666l11.264 0.085334h15.061334c8.192 0 16.234667-0.149333 24.149333-0.426667l78.314667 78.293333a660.394667 660.394667 0 0 1-90.453334 7.381334l-12.010666 0.085333h-15.061334c-100.586667 0-185.472-19.2-257.941333-57.941333a402.581333 402.581333 0 0 1-167.253333-167.253334c-24.32-45.525333-40.96-95.957333-49.962667-152.064a42.666667 42.666667 0 0 1 0-13.504c9.002667-56.106667 25.621333-106.538667 49.962667-152.042666l2.624-4.778667zM519.530667 213.333333h-15.061334c-87.146667 0-158.272 16.085333-217.706666 47.872-10.944 5.845333-21.44 12.224-31.445334 19.093334l139.328 139.328 3.562667-4.330667A149.333333 149.333333 0 1 1 604.373333 629.333333l133.226667 133.226667 7.701333-4.245333a316.842667 316.842667 0 0 0 124.16-127.786667c18.261333-34.133333 31.296-72.021333 39.125334-114.56l0.661333-4.010667-0.661333-3.946666c-6.464-35.093333-16.448-67.029333-30.016-96.32l-4.650667-9.664-4.458667-8.618667a317.269333 317.269333 0 0 0-132.224-132.224C677.802667 229.418667 606.677333 213.333333 519.530667 213.333333zM512 448a64 64 0 0 0-56 32.981333l86.997333 86.997334 3.306667-1.92A64 64 0 0 0 512 448z" fill="#8a8a8a" /></svg>