<?xml version="1.0" standalone="no"?><!DOCTYPE svg PUBLIC "-//W3C//DTD SVG 1.1//EN" "http://www.w3.org/Graphics/SVG/1.1/DTD/svg11.dtd"><svg class="icon" width="256px" height="256.00px" viewBox="0 0 1024 1024" version="1.1" xmlns="http://www.w3.org/2000/svg"><path d="M519.530667 128c100.586667 0 185.472 19.2 257.941333 57.941333a402.581333 402.581333 0 0 1 167.253333 167.253334c24.32 45.525333 40.96 95.957333 49.962667 152.064a42.666667 42.666667 0 1 1-84.266667 13.504c-7.530667-46.933333-21.162667-88.32-40.96-125.333334a317.269333 317.269333 0 0 0-132.224-132.224c-56.853333-30.421333-124.373333-46.442667-206.442666-47.786666L519.530667 213.333333h-15.061334c-87.146667 0-158.272 16.085333-217.706666 47.872a317.269333 317.269333 0 0 0-132.224 132.224c-18.261333 34.133333-31.296 72.042667-39.125334 114.581334L114.730667 512l0.682666 3.989333c7.168 38.997333 18.709333 74.090667 34.666667 105.984l4.458667 8.618667a317.269333 317.269333 0 0 0 132.224 132.224c56.853333 30.421333 124.373333 46.442667 206.442666 47.786667l11.264 0.085333h15.061334c20.437333 0 39.978667-0.896 58.709333-2.645333a42.666667 42.666667 0 0 1 8 84.949333c-17.130667 1.621333-34.773333 2.581333-52.970667 2.901333l-13.738666 0.128h-15.061334c-100.586667 0-185.472-19.2-257.941333-57.941333a402.581333 402.581333 0 0 1-167.253333-167.253333c-24.32-45.525333-40.96-95.957333-49.962667-152.064a42.666667 42.666667 0 0 1 0-13.504c9.002667-56.106667 25.621333-106.538667 49.962667-152.042667a402.581333 402.581333 0 0 1 167.253333-167.253333c69.546667-37.205333 150.592-56.384 245.952-57.856L504.469333 128h15.061334zM921.173333 668.010667a42.666667 42.666667 0 0 1 58.026667 62.506666l-120.682667 120.661334-2.346666 2.176a42.666667 42.666667 0 0 1-58.005334-2.176l-60.330666-60.330667-2.176-2.346667a42.666667 42.666667 0 0 1 2.176-57.984l2.346666-2.176a42.666667 42.666667 0 0 1 57.984 2.176l30.186667 30.165334 90.496-90.517334zM512 362.666667a149.333333 149.333333 0 1 1 0 298.666666 149.333333 149.333333 0 0 1 0-298.666666z m0 85.333333a64 64 0 1 0 0 128 64 64 0 0 0 0-128z" fill="#8a8a8a" /></svg>