<?xml version="1.0" standalone="no"?><!DOCTYPE svg PUBLIC "-//W3C//DTD SVG 1.1//EN" "http://www.w3.org/Graphics/SVG/1.1/DTD/svg11.dtd"><svg class="icon" width="200px" height="200.00px" viewBox="0 0 1024 1024" version="1.1" xmlns="http://www.w3.org/2000/svg"><path d="M721.194667 85.333333c105.856 0 192.597333 82.432 196.053333 186.24l0.085333 6.272v571.008c0 32.128-17.493333 61.781333-45.824 77.824a93.013333 93.013333 0 0 1-91.605333-0.128l-5.12-3.157333-198.144-130.56a119.552 119.552 0 0 0-126.293333-3.114667l-5.248 3.285334-195.626667 129.877333a93.013333 93.013333 0 0 1-91.477333 6.272c-29.44-14.122667-48.938667-42.666667-51.114667-74.752l-0.213333-5.973333V277.888c0-103.893333 83.968-189.013333 189.781333-192.426667L302.805333 85.333333h418.389334z m0 77.013334H302.805333c-62.848 0-114.602667 48.426667-117.546666 110.08l-0.128 5.418666v80.213334h205.610666a38.912 38.912 0 0 1 39.466667 36.650666 38.741333 38.741333 0 0 1-35.669333 40.192l-3.797334 0.170667h-205.653333v413.397333c0 1.706667 0.384 3.413333 1.066667 4.949334l1.194666 2.218666a13.226667 13.226667 0 0 0 16.085334 4.565334l2.133333-1.109334 195.584-129.834666a199.253333 199.253333 0 0 1 212.736-4.48l6.485333 4.138666 198.144 130.56a13.269333 13.269333 0 0 0 12.373334 1.194667 12.885333 12.885333 0 0 0 7.765333-9.514667l0.213333-2.304V277.845333c0-61.696-49.365333-112.469333-112.128-115.370666l-5.546666-0.128z" fill="#424242" /></svg>