<?xml version="1.0" standalone="no"?><!DOCTYPE svg PUBLIC "-//W3C//DTD SVG 1.1//EN" "http://www.w3.org/Graphics/SVG/1.1/DTD/svg11.dtd"><svg class="icon" width="200px" height="200.00px" viewBox="0 0 1024 1024" version="1.1" xmlns="http://www.w3.org/2000/svg"><path d="M644.266667 110.933333c-34.133333-19.2-74.666667-27.733333-121.6-27.733333h-4.266667c-44.8 0-85.333333 8.533333-121.6 27.733333-36.266667 19.2-66.133333 49.066667-85.333333 85.333334-17.066667 32-25.6 66.133333-27.733334 104.533333-36.266667 2.133333-55.466667 8.533333-74.666666 19.2-25.6 14.933333-46.933333 34.133333-59.733334 59.733333s-21.333333 51.2-21.333333 123.733334v230.4c0 70.4 6.4 98.133333 21.333333 123.733333s34.133333 46.933333 59.733334 59.733333c25.6 14.933333 51.2 21.333333 123.733333 21.333334h358.4c70.4 0 98.133333-6.4 123.733333-21.333334 25.6-14.933333 46.933333-34.133333 59.733334-59.733333 14.933333-25.6 21.333333-51.2 21.333333-123.733333V505.6c0-70.4-6.4-98.133333-21.333333-123.733333-14.933333-25.6-34.133333-46.933333-59.733334-59.733334-17.066667-8.533333-32-14.933333-57.6-17.066666-2.133333-40.533333-10.666667-74.666667-27.733333-106.666667-21.333333-38.4-49.066667-66.133333-85.333333-87.466667z m32 189.866667H364.8c2.133333-25.6 8.533333-46.933333 17.066667-66.133333 12.8-23.466667 29.866667-40.533333 51.2-51.2 23.466667-12.8 51.2-19.2 83.2-19.2h4.266666c32 0 59.733333 6.4 83.2 19.2 21.333333 12.8 40.533333 29.866667 51.2 51.2 12.8 19.2 19.2 40.533333 21.333334 66.133333z m-428.8 91.733333c17.066667-8.533333 32-12.8 85.333333-12.8h358.4c53.333333 0 68.266667 2.133333 85.333333 12.8 12.8 6.4 21.333333 14.933333 27.733334 27.733334 8.533333 17.066667 12.8 32 12.8 85.333333v230.4c0 53.333333-2.133333 68.266667-12.8 85.333333-6.4 12.8-14.933333 21.333333-27.733334 27.733334-17.066667 8.533333-32 12.8-85.333333 12.8H332.8c-53.333333 0-68.266667-2.133333-85.333333-12.8-12.8-6.4-21.333333-14.933333-27.733334-27.733334-8.533333-17.066667-12.8-32-12.8-85.333333V505.6c0-53.333333 2.133333-68.266667 12.8-85.333333 6.4-12.8 14.933333-21.333333 27.733334-27.733334z m345.6 53.333334c-14.933333-14.933333-40.533333-14.933333-57.6 2.133333l-147.2 149.333333-2.133334 2.133334c-21.333333 25.6-2.133333 64 32 64h96l-83.2 91.733333c-14.933333 14.933333-14.933333 40.533333 0 57.6 14.933333 14.933333 40.533333 14.933333 57.6 0l149.333334-160 2.133333-2.133333c21.333333-25.6 2.133333-66.133333-32-64h-98.133333l83.2-81.066667c17.066667-19.2 14.933333-44.8 0-59.733333z" fill="#8a8a8a" /></svg>