<?xml version="1.0" encoding="iso-8859-1"?>
<!-- Generator: Adobe Illustrator 25.0.0, SVG Export Plug-In . SVG Version: 6.00 Build 0)  -->
<svg version="1.1" baseProfile="basic" id="Layer_1"
	 xmlns="http://www.w3.org/2000/svg" xmlns:xlink="http://www.w3.org/1999/xlink" x="0px" y="0px" viewBox="0 0 64 64"
	 xml:space="preserve">
<path d="M20.262,31.626c0.962-0.409,17.617-7.481,18.92-7.951c0.951-0.343,1.769-0.475,2.322-0.21
	c0.457,0.219,0.69,0.71,0.619,1.449c-0.233,2.438-2.13,14.812-2.535,16.053c-0.345,1.06-0.71,1.975-1.404,1.975
	s-1.451-0.242-2.198-0.776c-0.747-0.534-5.707-3.86-6.396-4.295c-0.604-0.381-1.243-1.331-0.343-2.249
	c0.742-0.756,6.364-6.212,6.844-6.693s0.011-1.096-0.576-0.616s-8.779,5.961-9.488,6.402c-0.67,0.416-1.863,0.667-2.913,0.378
	c-1.09-0.301-2.936-0.859-3.668-1.121c-0.704-0.251-0.96-0.494-0.96-0.924C18.487,32.437,19.351,32.014,20.262,31.626z"/>
<path d="M32,10c12.15,0,22,9.85,22,22s-9.85,22-22,22s-22-9.85-22-22S19.85,10,32,10z M32,50c9.941,0,18-8.059,18-18
	s-8.059-18-18-18s-18,8.059-18,18S22.059,50,32,50z"/>
</svg>