<?xml version="1.0" encoding="iso-8859-1"?>
<!-- Generator: Adobe Illustrator 25.0.0, SVG Export Plug-In . SVG Version: 6.00 Build 0)  -->
<svg version="1.1" baseProfile="basic" id="Layer_1"
	 xmlns="http://www.w3.org/2000/svg" xmlns:xlink="http://www.w3.org/1999/xlink" x="0px" y="0px" viewBox="0 0 64 64"
	 xml:space="preserve">
<path d="M25.5,11C36.252,11,45,18.402,45,27.5c0,0.628-0.042,1.264-0.126,1.89l-3.965-0.529C40.97,28.41,41,27.952,41,27.5
	C41,20.607,34.047,15,25.5,15S10,20.607,10,27.5S16.953,40,25.5,40c0.48,0,0.957-0.018,1.428-0.052l0.293,3.989
	C26.654,43.979,26.08,44,25.5,44C14.748,44,6,36.598,6,27.5S14.748,11,25.5,11z"/>
<path d="M41.5,27C50.598,27,58,32.832,58,40s-7.402,13-16.5,13S25,47.168,25,40S32.402,27,41.5,27z M41.5,49
	c6.893,0,12.5-4.038,12.5-9s-5.607-9-12.5-9S29,35.038,29,40S34.607,49,41.5,49z"/>
<path d="M11.028,45.127l3.412-6.741l5.95,2.788L11.028,45.127z"/>
<path d="M54.585,56.408l-9.363-3.953l5.95-2.788L54.585,56.408z"/>
<path d="M18.5,20c1.381,0,2.5,1.119,2.5,2.5c0,1.381-1.119,2.5-2.5,2.5c-1.381,0-2.5-1.119-2.5-2.5C16,21.119,17.119,20,18.5,20z"/>
<path d="M32.5,20c1.381,0,2.5,1.119,2.5,2.5c0,1.381-1.119,2.5-2.5,2.5c-1.381,0-2.5-1.119-2.5-2.5C30,21.119,31.119,20,32.5,20z"/>
<path d="M36.5,35c1.381,0,2.5,1.119,2.5,2.5c0,1.381-1.119,2.5-2.5,2.5c-1.381,0-2.5-1.119-2.5-2.5C34,36.119,35.119,35,36.5,35z"/>
<path d="M46.5,35c1.381,0,2.5,1.119,2.5,2.5c0,1.381-1.119,2.5-2.5,2.5c-1.381,0-2.5-1.119-2.5-2.5C44,36.119,45.119,35,46.5,35z"/>
</svg>