<?xml version="1.0" standalone="no"?><!DOCTYPE svg PUBLIC "-//W3C//DTD SVG 1.1//EN" "http://www.w3.org/Graphics/SVG/1.1/DTD/svg11.dtd"><svg class="icon" width="200px" height="200.00px" viewBox="0 0 1024 1024" version="1.1" xmlns="http://www.w3.org/2000/svg"><path d="M706.090667 248.405333c-10.922667-2.816-23.381333-3.072-59.733334-3.072H277.333333c-30.293333 0-51.328 0-67.84 1.152-16.213333 1.109333-25.685333 3.157333-32.896 6.144A96 96 0 0 0 124.629333 304.64c-2.986667 7.210667-5.034667 16.64-6.144 32.853333-1.152 16.554667-1.152 37.632-1.152 67.882667v213.333333c0 30.293333 0 51.328 1.152 67.84 1.109333 16.213333 3.157333 25.685333 6.144 32.896 9.770667 23.509333 28.458667 42.24 51.968 51.968 7.210667 2.986667 16.64 5.034667 32.853334 6.144 16.554667 1.152 37.632 1.152 67.882666 1.152h369.066667c36.309333 0 48.768-0.256 59.690667-3.072 15.786667-4.096 30.293333-12.16 42.112-23.424 8.149333-7.765333 14.933333-18.218667 34.133333-49.066666l66.218667-106.666667c21.333333-34.304 28.373333-46.208 31.744-58.112a96 96 0 0 0 0-52.650667c-3.413333-11.904-10.453333-23.808-31.744-58.112l-66.261334-106.666666c-19.157333-30.848-25.941333-41.301333-34.090666-49.066667a96 96 0 0 0-42.112-23.424zM650.496 181.333333c30.634667 0 51.84 0 71.68 5.12a160 160 0 0 1 70.186667 39.04c14.805333 14.122667 25.984 32.128 42.154666 58.197334l2.133334 3.456 66.261333 106.666666c0.853333 1.28 1.621333 2.602667 2.432 3.882667 17.92 28.885333 30.336 48.810667 36.48 70.4a159.957333 159.957333 0 0 1 0 87.808c-6.144 21.589333-18.517333 41.514667-36.48 70.4l-2.432 3.882667-66.218667 106.666666-2.176 3.456c-16.170667 26.069333-27.306667 44.074667-42.154666 58.197334a160.085333 160.085333 0 0 1-70.229334 39.04c-19.797333 5.12-40.96 5.12-71.68 5.12h-4.053333-370.218667c-28.842667 0-52.138667 0-71.082666-1.28-19.456-1.322667-36.693333-4.138667-52.992-10.88a160 160 0 0 1-86.613334-86.613334c-6.741333-16.298667-9.557333-33.536-10.88-52.992-1.28-18.944-1.28-42.24-1.28-71.082666V404.181333c0-28.842667 0-52.138667 1.28-71.082666 1.322667-19.456 4.138667-36.693333 10.88-52.992a160 160 0 0 1 86.613334-86.613334c16.298667-6.741333 33.536-9.557333 52.992-10.88 18.944-1.28 42.24-1.28 71.082666-1.28h374.314667z" fill="#0D0B4E" /></svg>
